<svg xmlns="http://www.w3.org/2000/svg" viewBox="0 0 300 300">
  <style>
    .mark { fill: #3d2817; }
    @media (prefers-color-scheme: dark) { .mark { fill: #f5efe8; } }
  </style>
  <path class="mark" transform="translate(39,47)" d="M0 0 C17.508 -0.094 35.015 -0.164 52.523 -0.207 C60.653 -0.228 68.784 -0.256 76.914 -0.302 C84.005 -0.342 91.097 -0.367 98.188 -0.376 C101.939 -0.382 105.689 -0.394 109.439 -0.423 C112.979 -0.45 116.519 -0.458 120.059 -0.452 C121.957 -0.454 123.854 -0.475 125.752 -0.498 C141.313 -0.424 153.753 4.895 165.062 15.5 C169.098 19.637 171.994 24.052 175 28.938 C179.846 36.719 179.846 36.719 185 38 C185.821 38.139 186.642 38.278 187.488 38.422 C196.343 40.46 204.651 49.345 209.688 56.625 C216.165 68.138 216.639 79.494 216.521 92.376 C216.5 95.193 216.521 98.009 216.547 100.826 C216.568 113.996 215.398 123.175 206 133 C202.707 131.572 200.654 129.836 198.207 127.227 C197.494 126.484 196.78 125.742 196.045 124.977 C194.57 123.423 193.101 121.863 191.639 120.297 C184.776 113.194 179.302 109.937 169.32 109.504 C166.922 109.503 164.523 109.523 162.125 109.562 C160.903 109.555 159.681 109.548 158.422 109.541 C149.45 109.605 149.45 109.605 147.257 111.527 C146.842 112.013 146.427 112.499 146 113 C145.34 113 144.68 113 144 113 C144 113.66 144 114.32 144 115 C142.566 116.412 142.566 116.412 140.562 118.066 C135.793 122.122 131.4 126.488 127 130.938 C126.225 131.717 125.451 132.496 124.652 133.299 C122.766 135.197 120.882 137.097 119 139 C122.878 143.639 126.9 148.042 131.189 152.302 C131.482 152.596 131.482 152.596 132.965 154.079 C134.878 155.991 136.794 157.9 138.711 159.809 C140.048 161.144 141.384 162.479 142.721 163.814 C146.22 167.31 149.723 170.802 153.226 174.294 C156.807 177.866 160.386 181.44 163.965 185.014 C170.974 192.012 177.986 199.007 185 206 C184.67 206.66 184.34 207.32 184 208 C160.157 208.023 136.314 208.041 112.471 208.052 C101.401 208.057 90.331 208.064 79.261 208.075 C69.617 208.085 59.972 208.092 50.327 208.094 C45.217 208.095 40.107 208.098 34.997 208.106 C30.193 208.112 25.389 208.115 20.585 208.113 C18.816 208.113 17.047 208.115 15.279 208.119 C12.875 208.124 10.471 208.123 8.068 208.12 C7.713 208.122 7.713 208.122 5.919 208.129 C1.114 208.114 1.114 208.114 0 207 C-0.098 204.332 -0.13 201.69 -0.12 199.021 C-0.121 198.175 -0.122 197.329 -0.123 196.457 C-0.125 193.6 -0.119 190.742 -0.114 187.885 C-0.113 185.845 -0.113 183.805 -0.114 181.766 C-0.114 176.21 -0.108 170.655 -0.101 165.099 C-0.095 159.3 -0.095 153.501 -0.093 147.702 C-0.09 136.713 -0.082 125.723 -0.072 114.734 C-0.061 102.226 -0.055 89.718 -0.05 77.211 C-0.04 51.474 -0.022 25.737 0 0 Z M14 14 C13.9 16.338 13.866 18.646 13.873 20.985 C13.871 21.724 13.87 22.464 13.868 23.225 C13.864 25.721 13.867 28.217 13.871 30.713 C13.869 32.495 13.867 34.276 13.865 36.058 C13.861 40.911 13.863 45.764 13.866 50.618 C13.868 55.685 13.866 60.752 13.864 65.819 C13.862 74.33 13.865 82.841 13.87 91.352 C13.875 101.207 13.873 111.062 13.868 120.917 C13.863 129.362 13.863 137.807 13.865 146.252 C13.867 151.303 13.867 156.353 13.864 161.404 C13.861 166.152 13.863 170.899 13.869 175.647 C13.87 177.394 13.87 179.142 13.867 180.889 C13.865 183.265 13.868 185.64 13.873 188.015 C13.871 188.716 13.869 189.416 13.866 190.138 C13.886 194.886 13.886 194.886 15 196 C16.81 196.096 18.623 196.122 20.435 196.12 C21.025 196.121 21.025 196.121 24.009 196.124 C25.315 196.121 26.62 196.117 27.965 196.114 C29.345 196.113 30.724 196.113 32.103 196.114 C35.859 196.114 39.615 196.108 43.371 196.101 C47.293 196.095 51.214 196.095 55.135 196.093 C62.565 196.09 69.995 196.082 77.426 196.072 C85.883 196.061 94.339 196.055 102.796 196.05 C120.198 196.04 137.599 196.022 155 196 C151.42 191.74 147.764 187.64 143.821 183.707 C143.342 183.228 142.863 182.749 142.37 182.256 C140.814 180.701 139.255 179.149 137.695 177.598 C136.605 176.509 135.515 175.421 134.425 174.332 C131.577 171.487 128.726 168.646 125.873 165.805 C122.955 162.897 120.04 159.987 117.125 157.076 C111.419 151.381 105.711 145.69 100 140 C101.442 136.699 103.232 134.519 105.775 131.982 C106.162 131.593 106.162 131.593 108.121 129.626 C108.958 128.797 109.794 127.968 110.656 127.113 C111.514 126.256 112.372 125.398 113.256 124.514 C115.07 122.704 116.886 120.896 118.704 119.091 C121.494 116.318 124.277 113.538 127.059 110.756 C128.82 109 130.582 107.244 132.344 105.488 C133.18 104.653 134.017 103.818 134.879 102.957 C135.266 102.573 135.266 102.573 137.225 100.63 C137.907 99.952 138.589 99.273 139.292 98.574 C143.719 94.494 150.054 95.775 155.736 95.76 C157.832 95.75 159.928 95.719 162.023 95.688 C175.296 95.581 186.868 97.288 196.816 106.723 C198.213 108.146 199.607 109.573 201 111 C201.66 111 202.32 111 203 111 C203.05 106.768 203.086 102.537 203.11 98.305 C203.12 96.869 203.133 95.434 203.151 93.999 C203.313 80.282 202.76 67.245 192.872 56.711 C185.183 49.682 176.849 49.34 166.875 49.688 C166.254 49.699 166.254 49.699 163.109 49.756 C160.072 49.814 157.036 49.896 154 50 C153.965 50.962 153.929 51.923 153.893 52.914 C153.372 65.3 150.699 74.91 142 84 C132.37 92.804 121.924 95.51 109.188 95.277 C97.585 94.747 88.957 89.435 81.25 81.125 C73.347 71.638 72.22 62.205 71 50 C67.37 49.835 67.37 49.835 49 49 C55.641 42.262 55.641 42.262 58 40 C58.508 39.467 59.016 38.935 59.54 38.386 C63.438 36.19 67.325 36.561 71.726 36.568 C72.711 36.557 73.697 36.547 74.713 36.537 C77.97 36.507 81.227 36.497 84.484 36.488 C86.743 36.471 89.002 36.453 91.261 36.434 C97.205 36.386 103.15 36.357 109.094 36.33 C115.161 36.301 121.227 36.254 127.293 36.209 C139.195 36.123 151.098 36.056 163 36 C162.38 34.895 161.76 33.791 161.121 32.653 C160.772 32.031 160.424 31.41 160.064 30.77 C155.078 22.478 146.864 17.349 138 14 C132.236 12.691 126.471 12.859 120.594 12.871 C120.024 12.87 120.024 12.87 117.139 12.865 C113.378 12.861 109.617 12.864 105.855 12.867 C103.243 12.867 100.631 12.866 98.019 12.864 C92.551 12.862 87.083 12.865 81.615 12.87 C75.286 12.875 68.958 12.873 62.63 12.868 C56.542 12.863 50.454 12.863 44.367 12.866 C41.774 12.867 39.182 12.866 36.59 12.864 C32.98 12.861 29.369 12.865 25.759 12.871 C24.678 12.869 23.597 12.867 22.483 12.864 C21.506 12.867 20.528 12.87 19.522 12.873 C18.668 12.873 17.813 12.874 16.934 12.874 C15 13 15 13 14 14 Z M85 50 C84.536 59.583 86.097 67.644 92.25 75.242 C98.63 81.651 105.222 83.349 114.094 83.383 C121.487 83.213 126.582 81.041 132.059 76.168 C139.038 68.811 140.365 62.315 140.105 52.344 C140.088 51.957 140.088 51.957 140 50 C136.37 50 132.74 50 129 50 C129.083 51.671 129.165 53.341 129.25 55.062 C129.235 60.71 128.46 63.538 125 68 C121.354 71.468 118.462 72.292 113.562 72.5 C108.189 72.274 105.217 71.357 101 68 C96.315 62.113 96.635 57.396 97 50 C93.04 50 89.08 50 85 50 Z "/>
</svg>
